<?xml version="1.0" standalone="no"?>
<!DOCTYPE svg PUBLIC "-//W3C//DTD SVG 20010904//EN"
 "http://www.w3.org/TR/2001/REC-SVG-20010904/DTD/svg10.dtd">
<svg version="1.0" xmlns="http://www.w3.org/2000/svg"
 width="512.000000pt" height="512.000000pt" viewBox="0 0 512.000000 512.000000"
 preserveAspectRatio="xMidYMid meet">
<metadata>
Created by potrace 1.11, written by Peter Selinger 2001-2013
</metadata>
<g transform="translate(0.000000,512.000000) scale(0.100000,-0.100000)"
fill="#000000" stroke="none">
<path d="M2433 4749 c-729 -50 -1366 -432 -1746 -1047 -186 -300 -286 -620
-317 -1007 -18 -221 10 -489 75 -725 187 -678 702 -1235 1365 -1477 118 -43
334 -96 460 -114 122 -17 458 -17 580 0 706 98 1322 529 1650 1154 80 152 133
285 175 437 129 468 100 968 -82 1415 -169 417 -466 775 -843 1017 -385 247
-877 377 -1317 347z m-93 -807 c0 -5 6 -9 13 -9 66 -3 120 -14 133 -27 8 -9
23 -16 33 -16 9 0 22 -5 29 -12 9 -9 12 -9 12 0 0 7 7 12 16 12 8 0 13 -4 9
-10 -3 -5 9 -7 32 -4 69 10 94 10 99 2 3 -4 0 -9 -5 -9 -26 -3 -30 -4 -37 -11
-4 -4 1 -10 10 -14 9 -3 16 -12 16 -20 0 -8 5 -14 10 -14 6 0 10 5 10 10 0 6
15 10 33 9 20 0 26 -3 17 -7 -17 -8 -20 -26 -6 -39 5 -4 7 -4 4 2 -4 6 15 10
48 11 29 0 51 -3 48 -7 -2 -4 8 -9 23 -11 31 -3 33 -23 3 -22 -11 0 -20 -6
-20 -13 0 -10 11 -13 38 -11 24 2 42 -2 50 -12 12 -13 13 -12 8 5 -6 19 -5 19
8 2 8 -11 12 -26 9 -34 -5 -13 -3 -13 16 -4 17 10 25 9 37 -4 9 -8 13 -22 10
-30 -4 -11 2 -15 24 -15 17 0 30 -4 30 -10 0 -5 7 -10 15 -10 8 0 15 -4 15
-10 0 -5 7 -7 15 -4 9 4 15 0 15 -7 0 -11 3 -11 10 1 9 13 14 11 34 -12 18
-20 30 -25 47 -21 20 6 22 4 16 -24 -6 -29 -4 -31 39 -43 40 -11 42 -14 27
-26 -11 -8 -13 -13 -6 -14 7 0 10 -6 7 -14 -4 -10 4 -13 28 -13 25 1 33 -3 32
-16 -1 -9 2 -14 7 -12 4 3 12 -2 17 -11 5 -9 13 -14 18 -12 5 1 10 -14 11 -35
1 -44 22 -72 54 -74 12 -1 26 -8 31 -15 6 -8 8 0 6 24 -2 20 0 34 4 32 15 -10
8 -63 -9 -74 -15 -10 -14 -11 9 -7 25 4 26 2 23 -35 -3 -21 -1 -38 4 -38 4 0
14 -11 21 -25 8 -15 21 -25 34 -24 16 1 17 2 4 6 -30 8 -32 65 -3 77 9 3 12 0
9 -8 -3 -7 2 -16 10 -19 12 -5 14 -14 9 -38 -3 -17 -1 -34 4 -38 5 -3 15 -15
21 -26 6 -11 12 -14 12 -7 0 22 30 -13 30 -35 0 -11 4 -23 9 -28 5 -6 11 -23
13 -40 2 -22 8 -29 20 -27 18 3 30 -30 44 -123 7 -44 9 -46 13 -21 4 16 12 31
20 34 11 4 13 -2 8 -27 -5 -24 -2 -34 13 -43 11 -7 20 -16 20 -21 0 -4 -4 -6
-8 -3 -5 3 -8 -24 -7 -60 1 -42 6 -68 14 -73 10 -7 10 -13 2 -29 -17 -31 -13
-41 12 -37 l22 4 -22 -19 c-23 -18 -30 -31 -15 -29 35 6 37 0 37 -106 0 -58
-2 -105 -5 -105 -3 0 -3 -23 -1 -51 2 -35 0 -49 -8 -45 -16 10 -39 -44 -44
-104 -6 -71 -17 -110 -29 -110 -5 0 -6 -9 -3 -20 5 -14 2 -20 -9 -20 -14 0
-22 -31 -17 -62 0 -5 -3 -8 -9 -8 -5 0 -10 5 -10 10 0 6 -6 10 -14 10 -9 0
-12 -8 -9 -24 5 -22 -6 -42 -49 -87 -9 -9 -19 -26 -23 -38 -3 -11 -14 -23 -25
-26 -10 -3 -21 -17 -24 -30 -4 -16 -16 -27 -33 -31 -14 -4 -42 -22 -62 -40
-19 -19 -39 -34 -43 -34 -4 0 -8 -9 -8 -19 0 -12 -9 -21 -25 -25 -14 -4 -25
-13 -25 -20 0 -8 -13 -17 -30 -21 -16 -4 -34 -14 -39 -23 -8 -14 -13 -14 -36
-4 -33 15 -43 9 -24 -14 13 -16 12 -17 -9 -12 -12 4 -20 3 -17 -2 3 -4 -7 -11
-22 -15 -15 -3 -34 -14 -42 -23 -9 -9 -20 -17 -26 -17 -21 -1 -90 -28 -100
-40 -5 -6 -41 -15 -79 -19 -96 -10 -167 -26 -161 -37 4 -5 -1 -6 -10 -3 -8 4
-21 1 -29 -5 -7 -6 -29 -11 -47 -10 -45 1 -199 1 -224 0 -11 -1 -40 -2 -65 -3
-90 -4 -254 6 -309 18 -31 6 -45 12 -32 13 30 1 25 6 -13 15 -22 6 -27 4 -23
-7 4 -10 -2 -14 -19 -14 -13 0 -27 3 -29 8 -3 4 -30 11 -60 14 -30 4 -55 12
-55 18 0 6 -3 8 -6 4 -4 -3 -19 0 -34 8 -15 8 -30 12 -33 9 -3 -3 -13 -1 -24
4 -10 5 -36 15 -58 22 -22 7 -47 20 -57 30 -9 9 -35 20 -57 24 -27 4 -41 11
-41 21 0 9 -10 19 -22 24 -13 5 -38 15 -55 23 -18 7 -33 16 -33 21 0 4 -16 15
-35 24 -21 10 -35 24 -35 35 0 13 -8 18 -25 18 -31 0 -115 74 -115 101 0 11
-7 19 -15 19 -8 0 -15 9 -15 20 0 12 -12 26 -30 35 -18 9 -30 23 -30 36 0 11
-7 22 -15 25 -8 4 -15 11 -15 18 0 6 -13 36 -29 66 -16 30 -27 60 -24 67 3 7
-2 13 -10 13 -10 0 -17 11 -19 27 -2 17 -12 32 -25 38 -25 10 -31 41 -10 48 9
3 9 7 0 19 -14 16 -40 167 -37 216 1 17 -2 32 -6 32 -9 0 -30 46 -30 65 0 9 6
12 15 9 8 -4 15 -2 15 4 0 6 -4 12 -10 14 -5 2 -13 24 -16 51 -5 36 -4 47 7
47 10 0 14 15 14 58 0 31 -3 62 -8 69 -4 6 -3 14 2 17 5 3 7 15 4 26 -3 11 0
26 6 34 7 8 12 38 13 68 0 29 3 58 7 63 3 6 6 23 7 39 1 16 9 35 18 41 12 9
13 14 3 25 -9 10 -9 11 1 6 14 -8 17 10 2 19 -19 12 -11 45 10 45 16 0 20 7
20 31 0 22 5 32 20 36 11 3 20 14 20 24 0 29 1 33 12 47 7 8 7 12 -1 12 -8 0
-7 5 3 15 8 8 18 25 22 38 3 12 21 43 40 69 18 25 38 65 44 88 10 37 14 42 36
37 13 -2 27 0 30 4 3 5 16 9 30 9 13 0 24 5 24 10 0 6 -4 10 -9 10 -4 0 -6 11
-3 25 4 21 0 25 -19 26 -17 1 -19 3 -6 6 9 2 17 9 17 14 0 5 12 9 28 9 21 0
24 2 12 10 -13 8 -13 10 2 10 9 0 19 -8 21 -17 3 -10 6 -2 7 17 1 19 4 27 7
18 3 -11 13 -18 26 -17 12 0 17 3 10 5 -20 8 -3 34 22 34 13 0 27 5 30 10 3 6
1 10 -4 10 -6 0 -11 5 -11 10 0 6 9 10 21 10 16 0 19 4 14 20 -5 15 -3 18 9
14 9 -3 16 -1 16 5 0 6 8 11 18 11 14 0 15 2 2 10 -8 5 -10 10 -5 10 6 0 21
10 35 21 14 11 18 17 10 13 -8 -4 -12 -3 -7 1 4 5 17 10 30 11 48 5 121 22
100 23 -16 1 -23 7 -23 21 0 25 20 27 21 3 1 -17 2 -17 6 0 2 9 14 18 26 19
12 0 27 2 32 3 6 2 36 3 68 4 55 1 58 2 63 30 6 26 11 30 58 35 28 3 103 6
166 5 134 -1 152 1 90 11 l-45 7 58 1 c31 1 57 -2 57 -6z m491 -126 c-13 -16
-41 -11 -41 6 0 7 5 6 14 -1 11 -9 15 -8 20 5 4 9 9 14 13 11 3 -4 0 -13 -6
-21z m269 -156 c-19 -13 -30 -13 -30 0 0 6 10 10 23 10 18 0 19 -2 7 -10z
m-1756 -167 c-5 -5 -12 -12 -16 -18 -4 -6 -8 -2 -8 8 0 9 7 17 17 17 9 0 12
-3 7 -7z m-99 -103 c3 -5 -1 -10 -10 -10 -9 0 -13 5 -10 10 3 6 8 10 10 10 2
0 7 -4 10 -10z m2275 -74 c0 -3 -7 -6 -15 -6 -9 0 -15 9 -15 21 0 18 2 19 15
5 8 -8 15 -17 15 -20z m367 -668 c-3 -8 -6 -5 -6 6 -1 11 2 17 5 13 3 -3 4
-12 1 -19z m20 -104 c-3 -3 -12 -4 -19 -1 -8 3 -5 6 6 6 11 1 17 -2 13 -5z"/>
<path d="M2077 3903 c-13 -12 -7 -23 13 -23 11 0 20 4 20 10 0 5 8 7 18 4 14
-5 15 -4 2 5 -17 12 -43 14 -53 4z"/>
<path d="M2150 3900 c0 -5 5 -10 10 -10 6 0 10 5 10 10 0 6 -4 10 -10 10 -5 0
-10 -4 -10 -10z"/>
<path d="M2250 3900 c0 -5 5 -10 10 -10 6 0 10 5 10 10 0 6 -4 10 -10 10 -5 0
-10 -4 -10 -10z"/>
<path d="M2023 3869 c-11 -5 2 -8 35 -8 28 -1 52 1 52 3 0 8 -69 12 -87 5z"/>
<path d="M1803 3833 c-15 -5 -17 -23 -4 -23 5 0 11 7 15 15 3 8 4 15 3 14 -1
0 -8 -3 -14 -6z"/>
<path d="M2762 3773 c-6 -2 -10 -9 -6 -14 8 -14 21 -11 28 6 6 15 1 17 -22 8z"/>
<path d="M1625 3740 c-3 -5 1 -10 10 -10 9 0 13 5 10 10 -3 6 -8 10 -10 10 -2
0 -7 -4 -10 -10z"/>
<path d="M3270 3480 c0 -5 5 -10 11 -10 5 0 7 5 4 10 -3 6 -8 10 -11 10 -2 0
-4 -4 -4 -10z"/>
</g>
</svg>
